<svg id="Capa_1" enable-background="new 0 0 512 512" height="512" viewBox="0 0 512 512" width="512" xmlns="http://www.w3.org/2000/svg"><g><path d="m363.471 280.583v56.902c0 9.613-7.793 17.407-17.407 17.407h-47.557c-9.613 0-17.407-7.793-17.407-17.407v-56.902c0-13.862-11.238-25.1-25.1-25.1s-25.1 11.238-25.1 25.1v56.902c0 9.613-7.793 17.407-17.407 17.407h-47.557c-9.613 0-17.407-7.793-17.407-17.407v-56.902c0-13.862-11.238-25.1-25.1-25.1s-25.1 11.238-25.1 25.1v198.817c0 13.862 11.238 25.1 25.1 25.1s25.1-11.238 25.1-25.1v-56.902c0-9.613 7.793-17.407 17.407-17.407h47.557c9.613 0 17.407 7.793 17.407 17.407v56.902c0 13.862 11.238 25.1 25.1 25.1s25.1-11.238 25.1-25.1v-56.902c0-9.613 7.793-17.407 17.407-17.407h47.557c9.613 0 17.407 7.793 17.407 17.407v56.902c0 13.862 11.238 25.1 25.1 25.1s25.1-11.238 25.1-25.1v-198.817c0-13.862-11.238-25.1-25.1-25.1s-25.1 11.238-25.1 25.1z" fill="#655e67"/><path d="m281.1 150.141h-50.2v215.312c0 13.862 11.238 25.1 25.1 25.1s25.1-11.238 25.1-25.1z" fill="#ddebfd"/><path d="m322.94 20.758c-12.796-8.457-28.042-13.258-44.112-13.258h-45.655c-16.07 0-31.316 4.801-44.112 13.258-21.011 13.885-31.356 39.262-26.751 64.022l8.71 46.83c3.306 17.773 14.304 33.259 30.161 41.941 16.657 9.121 35.485 14.026 54.819 14.026s38.162-4.905 54.819-14.026c15.857-8.682 26.855-24.167 30.161-41.941l8.711-46.83c4.606-24.761-5.74-50.137-26.751-64.022z" fill="#8c818f"/><path d="m326.39 23.221c5.091 11.509 6.749 24.551 4.354 37.429l-8.711 46.83c-3.306 17.773-14.304 33.258-30.161 41.94-16.657 9.121-35.485 14.027-54.819 14.027s-38.162-4.905-54.819-14.027c-2.532-1.386-4.925-2.964-7.198-4.679 5.253 12.126 14.351 22.351 26.145 28.808 16.657 9.121 35.485 14.026 54.819 14.026s38.162-4.905 54.819-14.026c15.857-8.682 26.855-24.168 30.161-41.941l8.711-46.83c4.345-23.361-4.624-47.267-23.301-61.557z" fill="#766d78"/><path d="m233.173 7.5c-8.651 0-17.058 1.403-24.978 4.007-2.007 5.714-3.026 11.887-2.832 18.314l2.231 73.745c.498 16.473 13.996 29.569 30.477 29.569h35.86c16.481 0 29.979-13.095 30.477-29.569l2.231-73.745c.194-6.428-.825-12.6-2.832-18.314-7.92-2.605-16.327-4.007-24.978-4.007h-45.656z" fill="#c77e67"/><path d="m413.67 417.649c4.143 0 7.5-3.357 7.5-7.5v-129.566c0-17.976-14.624-32.6-32.6-32.6s-32.6 14.624-32.6 32.6v56.902c0 5.462-4.444 9.906-9.907 9.906h-47.557c-5.463 0-9.907-4.444-9.907-9.906v-146.883c8.958-2.491 17.638-5.992 25.821-10.474 17.806-9.748 30.174-26.933 33.933-47.147l8.71-46.829c5.216-28.04-6.556-56.165-29.988-71.65-14.354-9.487-31.038-14.502-48.248-14.502h-45.655c-17.209 0-33.894 5.015-48.248 14.501-23.433 15.486-35.205 43.61-29.989 71.65.757 4.072 4.67 6.756 8.745 6.003 4.072-.758 6.759-4.673 6.002-8.745-4.111-22.103 5.118-44.238 23.513-56.395 1.567-1.036 3.17-2.003 4.802-2.909-.141 1.969-.191 3.951-.131 5.942l2.231 73.746c.625 20.659 17.304 36.842 37.973 36.842h35.86c20.668 0 37.349-16.183 37.974-36.842l2.23-73.746c.06-1.992.01-3.973-.131-5.942 1.631.906 3.234 1.873 4.802 2.909 18.394 12.156 27.623 34.292 23.512 56.395l-8.71 46.829c-2.933 15.768-12.551 29.156-26.39 36.733-15.654 8.573-33.365 13.104-51.217 13.104s-35.562-4.531-51.218-13.104c-13.838-7.577-23.457-20.966-26.389-36.733l-2.224-11.955c-.758-4.073-4.67-6.768-8.745-6.002-4.072.757-6.759 4.672-6.002 8.744l2.224 11.955c3.76 20.215 16.128 37.399 33.932 47.147 8.184 4.481 16.863 7.982 25.822 10.474v146.884c0 5.462-4.444 9.906-9.906 9.906h-47.558c-5.462 0-9.906-4.444-9.906-9.906v-56.902c0-17.976-14.625-32.6-32.6-32.6s-32.6 14.624-32.6 32.6v198.817c0 17.976 14.625 32.6 32.6 32.6s32.6-14.624 32.6-32.6v-56.902c0-5.462 4.444-9.906 9.906-9.906h47.558c5.462 0 9.906 4.444 9.906 9.906v56.902c0 17.976 14.625 32.6 32.6 32.6s32.6-14.624 32.6-32.6v-56.902c0-5.462 4.444-9.906 9.907-9.906h47.557c5.463 0 9.907 4.444 9.907 9.906v56.902c0 17.976 14.624 32.6 32.6 32.6s32.6-14.624 32.6-32.6v-34.251c0-4.143-3.357-7.5-7.5-7.5s-7.5 3.357-7.5 7.5v34.251c0 9.704-7.896 17.6-17.6 17.6s-17.6-7.896-17.6-17.6v-56.902c0-13.733-11.174-24.906-24.907-24.906h-47.557c-13.734 0-24.907 11.173-24.907 24.906v56.902c0 9.704-7.896 17.6-17.6 17.6-9.705 0-17.6-7.896-17.6-17.6v-56.902c0-13.733-11.173-24.906-24.906-24.906h-47.558c-13.733 0-24.906 11.173-24.906 24.906v56.902c0 9.704-7.896 17.6-17.6 17.6s-17.6-7.896-17.6-17.6v-198.817c0-9.704 7.896-17.6 17.6-17.6s17.6 7.896 17.6 17.6v56.902c0 13.733 11.173 24.906 24.906 24.906h47.558c3.519 0 6.868-.738 9.906-2.061v5.119c0 17.976 14.625 32.6 32.6 32.6s32.6-14.624 32.6-32.6v-5.119c3.038 1.322 6.388 2.061 9.907 2.061h47.557c13.734 0 24.907-11.173 24.907-24.906v-56.902c0-9.704 7.896-17.6 17.6-17.6s17.6 7.896 17.6 17.6v129.566c-.001 4.143 3.357 7.5 7.499 7.5zm-114.528-388.054-2.23 73.745c-.379 12.503-10.474 22.296-22.981 22.296h-35.86c-12.508 0-22.602-9.793-22.98-22.295l-2.231-73.746c-.124-4.098.331-8.142 1.344-12.07 6.142-1.663 12.51-2.524 18.97-2.524h45.655c6.46 0 12.828.861 18.97 2.524 1.012 3.927 1.467 7.971 1.343 12.07zm-25.542 335.855c0 9.704-7.896 17.6-17.6 17.6-9.705 0-17.6-7.896-17.6-17.6v-171.675c11.813 1.734 23.382 1.735 35.2 0z"/></g></svg>